<svg id="visual" viewBox="0 0 900 600" width="900" height="600" xmlns="http://www.w3.org/2000/svg" xmlns:xlink="http://www.w3.org/1999/xlink" version="1.1"><rect x="0" y="0" width="900" height="600" fill="#002233"></rect><path d="M0 496L21.5 488.3C43 480.7 86 465.3 128.8 453.3C171.7 441.3 214.3 432.7 257.2 437.3C300 442 343 460 385.8 469C428.7 478 471.3 478 514.2 466.7C557 455.3 600 432.7 642.8 435.5C685.7 438.3 728.3 466.7 771.2 479C814 491.3 857 487.7 878.5 485.8L900 484L900 601L878.5 601C857 601 814 601 771.2 601C728.3 601 685.7 601 642.8 601C600 601 557 601 514.2 601C471.3 601 428.7 601 385.8 601C343 601 300 601 257.2 601C214.3 601 171.7 601 128.8 601C86 601 43 601 21.5 601L0 601Z" fill="#0066FF" stroke-linecap="round" stroke-linejoin="miter"></path></svg>